<svg width="584" height="234" viewBox="0 0 584 234" fill="none" xmlns="http://www.w3.org/2000/svg">
<circle cx="110.981" cy="31.1159" r="18.7932" fill="#F5F5FA"/>
<path fill-rule="evenodd" clip-rule="evenodd" d="M123.51 220.975C125.758 222.099 130.256 222.806 130.256 216.638V74.0028C129.453 68.7022 125.244 58.1009 114.836 58.1009H38.6995V11.8408H15.5695C11.7145 11.8408 0.631348 16.3705 0.631348 26.779V153.512C1.75572 164.756 10.9435 187.244 38.6995 187.244H84.6886C84.6886 187.244 89.2965 187.244 94.5972 192.062L123.51 220.975ZM93.1515 95.2054H38.2177V150.139H93.1515V95.2054Z" fill="#F5F5FA"/>
<path d="M382.177 181.694L377.219 201.179C377.2 201.294 377.132 201.39 377.017 201.467C376.921 201.544 376.806 201.583 376.671 201.583H375.028C374.894 201.583 374.779 201.544 374.682 201.467C374.586 201.39 374.519 201.285 374.481 201.15L370.532 184.894C370.436 184.509 370.34 184.135 370.244 183.77C370.167 183.385 370.08 183.011 369.984 182.645H369.321C369.225 183.011 369.129 183.385 369.033 183.77C368.956 184.135 368.87 184.509 368.774 184.894L364.825 201.15C364.806 201.285 364.738 201.39 364.623 201.467C364.527 201.544 364.412 201.583 364.277 201.583H362.634C362.481 201.583 362.356 201.544 362.26 201.467C362.163 201.39 362.096 201.294 362.058 201.179L357.1 181.694H358.368L362.577 198.498C362.673 198.844 362.759 199.2 362.836 199.565C362.913 199.911 362.99 200.257 363.067 200.603H363.845C363.941 200.257 364.027 199.911 364.104 199.565C364.181 199.219 364.258 198.873 364.335 198.527L368.341 182.155C368.38 182.021 368.447 181.915 368.543 181.838C368.639 181.742 368.754 181.694 368.889 181.694H370.417C370.551 181.694 370.666 181.742 370.762 181.838C370.859 181.915 370.926 182.021 370.964 182.155L374.971 198.498C375.067 198.864 375.153 199.219 375.23 199.565C375.307 199.911 375.374 200.257 375.432 200.603H376.21C376.306 200.257 376.393 199.911 376.47 199.565C376.546 199.219 376.623 198.873 376.7 198.527L380.937 181.694H382.177ZM388.967 181.694C389.908 181.694 390.85 181.694 391.791 181.694C392.752 181.694 393.703 181.704 394.645 181.723C395.586 181.742 396.518 181.771 397.441 181.81L397.383 182.703H389.168C388.515 182.703 387.987 182.914 387.583 183.337C387.179 183.741 386.978 184.279 386.978 184.951V198.325C386.978 198.998 387.179 199.546 387.583 199.968C387.987 200.372 388.515 200.574 389.168 200.574H397.383L397.441 201.467C396.518 201.506 395.586 201.534 394.645 201.554C393.703 201.573 392.752 201.583 391.791 201.583C390.85 201.583 389.908 201.583 388.967 201.583C388.025 201.583 387.256 201.294 386.661 200.718C386.084 200.141 385.796 199.411 385.796 198.527V184.75C385.796 183.846 386.084 183.116 386.661 182.559C387.256 181.983 388.025 181.694 388.967 181.694ZM386.286 190.457L396.201 190.485V191.437L386.286 191.465V190.457ZM407.723 181.464C409.299 181.464 410.557 181.617 411.499 181.925C412.44 182.213 413.123 182.732 413.545 183.481C413.968 184.231 414.179 185.288 414.179 186.652C414.179 188.074 413.91 189.16 413.372 189.909C412.854 190.658 411.998 191.091 410.807 191.206V191.321C412.287 191.456 413.315 191.975 413.891 192.878C414.468 193.781 414.756 195.03 414.756 196.625C414.756 197.989 414.554 199.046 414.151 199.795C413.747 200.545 413.094 201.073 412.191 201.381C411.287 201.669 410.086 201.813 408.588 201.813C407.55 201.813 406.656 201.803 405.907 201.784C405.177 201.784 404.504 201.765 403.889 201.727C403.275 201.688 402.612 201.64 401.901 201.583L402.304 200.689C402.708 200.708 403.467 200.727 404.581 200.747C405.696 200.766 406.993 200.775 408.472 200.775C409.741 200.775 410.74 200.66 411.47 200.43C412.2 200.199 412.729 199.776 413.055 199.161C413.382 198.546 413.545 197.663 413.545 196.51C413.545 195.261 413.372 194.3 413.026 193.627C412.681 192.935 412.114 192.455 411.326 192.186C410.557 191.917 409.52 191.773 408.213 191.754H402.275V190.803H408.213C409.385 190.783 410.317 190.668 411.009 190.457C411.72 190.226 412.219 189.823 412.508 189.246C412.815 188.65 412.969 187.814 412.969 186.738C412.969 185.585 412.796 184.711 412.45 184.115C412.123 183.501 411.566 183.078 410.778 182.847C410.01 182.617 408.982 182.501 407.694 182.501C406.81 182.501 406.013 182.511 405.302 182.53C404.591 182.53 403.976 182.54 403.457 182.559C402.957 182.559 402.573 182.569 402.304 182.588L401.901 181.694C402.516 181.617 403.092 181.569 403.63 181.55C404.168 181.512 404.754 181.493 405.388 181.493C406.042 181.473 406.82 181.464 407.723 181.464ZM403.082 181.694V201.583H401.901V181.694H403.082ZM432.88 181.435C434.244 181.435 435.388 181.617 436.31 181.983C437.252 182.328 438.011 182.905 438.587 183.712C439.164 184.5 439.586 185.547 439.855 186.854C440.124 188.141 440.259 189.736 440.259 191.638C440.259 193.522 440.124 195.116 439.855 196.423C439.586 197.73 439.164 198.787 438.587 199.594C438.011 200.382 437.252 200.958 436.31 201.323C435.388 201.669 434.244 201.842 432.88 201.842C431.593 201.842 430.392 201.813 429.277 201.755C428.182 201.717 427.144 201.659 426.164 201.583L426.712 200.689C427.615 200.708 428.566 200.727 429.565 200.747C430.565 200.766 431.669 200.775 432.88 200.775C434.398 200.775 435.599 200.487 436.483 199.911C437.386 199.334 438.03 198.383 438.414 197.057C438.818 195.712 439.019 193.906 439.019 191.638C439.019 189.371 438.818 187.574 438.414 186.248C438.03 184.903 437.386 183.943 436.483 183.366C435.599 182.79 434.398 182.501 432.88 182.501C431.669 182.501 430.565 182.511 429.565 182.53C428.566 182.549 427.596 182.569 426.654 182.588L426.164 181.694C427.144 181.617 428.191 181.56 429.306 181.521C430.42 181.464 431.612 181.435 432.88 181.435ZM427.346 181.694V201.583H426.164V181.694H427.346ZM448.19 181.694C449.131 181.694 450.073 181.694 451.015 181.694C451.975 181.694 452.926 181.704 453.868 181.723C454.81 181.742 455.742 181.771 456.664 181.81L456.606 182.703H448.392C447.738 182.703 447.21 182.914 446.806 183.337C446.403 183.741 446.201 184.279 446.201 184.951V198.325C446.201 198.998 446.403 199.546 446.806 199.968C447.21 200.372 447.738 200.574 448.392 200.574H456.606L456.664 201.467C455.742 201.506 454.81 201.534 453.868 201.554C452.926 201.573 451.975 201.583 451.015 201.583C450.073 201.583 449.131 201.583 448.19 201.583C447.248 201.583 446.48 201.294 445.884 200.718C445.307 200.141 445.019 199.411 445.019 198.527V184.75C445.019 183.846 445.307 183.116 445.884 182.559C446.48 181.983 447.248 181.694 448.19 181.694ZM445.509 190.457L455.425 190.485V191.437L445.509 191.465V190.457ZM474.786 181.694L468.186 201.208C468.147 201.304 468.08 201.39 467.984 201.467C467.888 201.544 467.773 201.583 467.638 201.583H466.082C465.966 201.583 465.861 201.544 465.764 201.467C465.668 201.39 465.601 201.304 465.563 201.208L458.962 181.694H460.202L465.793 198.47C465.909 198.835 466.024 199.19 466.139 199.536C466.254 199.882 466.36 200.237 466.456 200.603H467.263C467.379 200.237 467.484 199.882 467.58 199.536C467.696 199.171 467.821 198.806 467.955 198.441L473.518 181.694H474.786ZM481.292 181.694C482.233 181.694 483.175 181.694 484.116 181.694C485.077 181.694 486.028 181.704 486.97 181.723C487.912 181.742 488.844 181.771 489.766 181.81L489.708 182.703H481.494C480.84 182.703 480.312 182.914 479.908 183.337C479.505 183.741 479.303 184.279 479.303 184.951V198.325C479.303 198.998 479.505 199.546 479.908 199.968C480.312 200.372 480.84 200.574 481.494 200.574H489.708L489.766 201.467C488.844 201.506 487.912 201.534 486.97 201.554C486.028 201.573 485.077 201.583 484.116 201.583C483.175 201.583 482.233 201.583 481.292 201.583C480.35 201.583 479.582 201.294 478.986 200.718C478.409 200.141 478.121 199.411 478.121 198.527V184.75C478.121 183.846 478.409 183.116 478.986 182.559C479.582 181.983 480.35 181.694 481.292 181.694ZM478.611 190.457L488.526 190.485V191.437L478.611 191.465V190.457ZM495.321 181.694V198.325C495.321 198.998 495.523 199.546 495.926 199.968C496.349 200.372 496.897 200.574 497.569 200.574H505.236L505.265 201.438C503.959 201.515 502.642 201.563 501.316 201.583C499.991 201.583 498.674 201.583 497.368 201.583C496.368 201.583 495.581 201.285 495.004 200.689C494.428 200.093 494.139 199.344 494.139 198.441V181.694H495.321ZM514.847 181.348C516.23 181.348 517.403 181.531 518.363 181.896C519.324 182.242 520.093 182.818 520.669 183.625C521.246 184.433 521.659 185.489 521.909 186.796C522.178 188.103 522.312 189.717 522.312 191.638C522.312 193.56 522.178 195.174 521.909 196.481C521.659 197.787 521.246 198.844 520.669 199.651C520.093 200.458 519.324 201.044 518.363 201.41C517.403 201.755 516.23 201.928 514.847 201.928C513.463 201.928 512.291 201.755 511.33 201.41C510.37 201.044 509.601 200.458 509.025 199.651C508.448 198.844 508.025 197.787 507.756 196.481C507.487 195.174 507.353 193.56 507.353 191.638C507.353 189.717 507.487 188.103 507.756 186.796C508.025 185.489 508.448 184.433 509.025 183.625C509.601 182.818 510.37 182.242 511.33 181.896C512.291 181.531 513.463 181.348 514.847 181.348ZM514.847 182.415C513.29 182.415 512.061 182.713 511.157 183.308C510.254 183.885 509.601 184.846 509.197 186.191C508.794 187.536 508.592 189.352 508.592 191.638C508.592 193.925 508.794 195.741 509.197 197.086C509.601 198.431 510.254 199.402 511.157 199.997C512.061 200.574 513.29 200.862 514.847 200.862C516.384 200.862 517.604 200.574 518.507 199.997C519.43 199.402 520.083 198.431 520.467 197.086C520.871 195.741 521.073 193.925 521.073 191.638C521.073 189.352 520.871 187.536 520.467 186.191C520.083 184.846 519.43 183.885 518.507 183.308C517.604 182.713 516.384 182.415 514.847 182.415ZM533.757 181.464C535.217 181.464 536.37 181.637 537.216 181.983C538.08 182.328 538.705 182.934 539.089 183.798C539.474 184.663 539.666 185.864 539.666 187.401C539.666 188.958 539.474 190.168 539.089 191.033C538.724 191.898 538.109 192.503 537.245 192.849C536.399 193.176 535.256 193.339 533.815 193.339C533.046 193.339 532.316 193.339 531.624 193.339C530.951 193.32 530.336 193.291 529.779 193.253C529.222 193.214 528.751 193.185 528.367 193.166C527.983 193.147 527.714 193.118 527.56 193.08L527.646 192.301C528.607 192.301 529.606 192.301 530.644 192.301C531.701 192.301 532.738 192.301 533.757 192.301C534.91 192.282 535.823 192.138 536.495 191.869C537.187 191.6 537.686 191.11 537.994 190.399C538.301 189.688 538.455 188.689 538.455 187.401C538.455 186.095 538.301 185.095 537.994 184.404C537.686 183.693 537.187 183.203 536.495 182.934C535.823 182.645 534.91 182.501 533.757 182.501C532.258 182.501 530.961 182.511 529.866 182.53C528.79 182.549 528.059 182.578 527.675 182.617L527.272 181.694C527.963 181.617 528.607 181.569 529.203 181.55C529.798 181.512 530.452 181.493 531.163 181.493C531.893 181.473 532.758 181.464 533.757 181.464ZM528.453 181.694V201.583H527.272V181.694H528.453ZM547.074 181.694C548.015 181.694 548.957 181.694 549.898 181.694C550.859 181.694 551.81 181.704 552.752 181.723C553.693 181.742 554.625 181.771 555.548 181.81L555.49 182.703H547.275C546.622 182.703 546.094 182.914 545.69 183.337C545.286 183.741 545.085 184.279 545.085 184.951V198.325C545.085 198.998 545.286 199.546 545.69 199.968C546.094 200.372 546.622 200.574 547.275 200.574H555.49L555.548 201.467C554.625 201.506 553.693 201.534 552.752 201.554C551.81 201.573 550.859 201.583 549.898 201.583C548.957 201.583 548.015 201.583 547.074 201.583C546.132 201.583 545.363 201.294 544.768 200.718C544.191 200.141 543.903 199.411 543.903 198.527V184.75C543.903 183.846 544.191 183.116 544.768 182.559C545.363 181.983 546.132 181.694 547.074 181.694ZM544.393 190.457L554.308 190.485V191.437L544.393 191.465V190.457ZM566.493 181.464C567.934 181.464 569.087 181.627 569.952 181.954C570.816 182.261 571.441 182.828 571.825 183.654C572.21 184.461 572.402 185.605 572.402 187.084C572.402 188.237 572.277 189.188 572.027 189.938C571.777 190.668 571.383 191.225 570.845 191.61C570.307 191.975 569.606 192.215 568.741 192.33V192.474C569.087 192.551 569.394 192.724 569.664 192.993C569.952 193.262 570.211 193.589 570.442 193.973C570.672 194.338 570.864 194.761 571.018 195.241L573.122 201.583H571.825L569.808 195.328C569.5 194.405 569.087 193.762 568.568 193.397C568.069 193.012 567.444 192.82 566.695 192.82C565.58 192.82 564.581 192.811 563.697 192.791C562.832 192.772 562.112 192.753 561.535 192.734C560.959 192.714 560.546 192.695 560.296 192.676L560.382 191.754H566.493C567.646 191.734 568.559 191.59 569.231 191.321C569.923 191.052 570.423 190.591 570.73 189.938C571.037 189.265 571.191 188.324 571.191 187.113C571.191 185.903 571.037 184.971 570.73 184.317C570.423 183.645 569.923 183.174 569.231 182.905C568.559 182.636 567.646 182.501 566.493 182.501C564.994 182.501 563.697 182.511 562.602 182.53C561.526 182.549 560.795 182.569 560.411 182.588L560.008 181.694C560.699 181.617 561.343 181.569 561.939 181.55C562.554 181.512 563.217 181.493 563.928 181.493C564.639 181.473 565.494 181.464 566.493 181.464ZM561.189 181.694V201.583H560.008V181.694H561.189Z" fill="#F5F5FA"/>
<path d="M210.222 73.2352C217.607 73.2352 223.481 73.9066 227.845 75.2493C232.209 76.5081 235.356 78.7739 237.286 82.0467C239.3 85.3196 240.307 89.9351 240.307 95.8934C240.307 102.103 239.132 106.845 236.782 110.118C234.433 113.391 230.572 115.279 225.202 115.782V116.286C231.831 116.873 236.447 119.139 239.048 123.083C241.734 127.027 243.076 132.482 243.076 139.447C243.076 145.406 242.069 150.021 240.055 153.294C238.125 156.567 235.02 158.875 230.74 160.217C226.544 161.476 221.048 162.106 214.25 162.106C208.963 162.106 204.348 162.064 200.403 161.98C196.459 161.98 192.851 161.896 189.578 161.728C186.305 161.56 182.906 161.35 179.382 161.099L181.144 149.644C183.158 149.728 186.892 149.812 192.347 149.895C197.802 149.979 204.222 150.021 211.607 150.021C215.551 150.021 218.656 149.686 220.922 149.014C223.187 148.259 224.782 146.916 225.705 144.986C226.712 142.972 227.216 140.161 227.216 136.552C227.216 132.524 226.712 129.461 225.705 127.363C224.698 125.181 223.02 123.671 220.67 122.831C218.404 121.908 215.173 121.447 210.977 121.447H181.018V110.747H210.851C214.46 110.747 217.271 110.411 219.285 109.74C221.383 108.985 222.894 107.684 223.817 105.838C224.74 103.992 225.202 101.348 225.202 97.9075C225.202 94.4668 224.698 91.8233 223.691 89.9771C222.768 88.1309 221.173 86.9141 218.908 86.3266C216.642 85.6553 213.495 85.3196 209.467 85.3196C205.019 85.3196 201.075 85.3196 197.634 85.3196C194.193 85.3196 191.13 85.3615 188.445 85.4455C185.759 85.4455 183.326 85.5294 181.144 85.6972L179.382 74.2423C182.571 73.9066 185.592 73.6968 188.445 73.6129C191.382 73.445 194.571 73.3611 198.012 73.3611C201.536 73.2772 205.606 73.2352 210.222 73.2352ZM194.739 74.2423V161.099H179.382V74.2423H194.739ZM265.966 73.9905C270.329 73.9905 274.777 73.9905 279.309 73.9905C283.924 73.9905 288.456 74.0744 292.904 74.2423C297.351 74.4101 301.547 74.6619 305.492 74.9975L304.736 86.7043H270.749C268.399 86.7043 266.637 87.2917 265.462 88.4666C264.371 89.6414 263.826 91.4877 263.826 94.0052V141.336C263.826 143.853 264.371 145.699 265.462 146.874C266.637 148.049 268.399 148.637 270.749 148.637H304.736L305.492 160.343C301.547 160.679 297.351 160.931 292.904 161.099C288.456 161.183 283.924 161.225 279.309 161.225C274.777 161.308 270.329 161.35 265.966 161.35C260.595 161.35 256.273 159.882 253 156.945C249.811 153.924 248.175 149.895 248.091 144.86V90.4806C248.175 85.4455 249.811 81.4593 253 78.5221C256.273 75.501 260.595 73.9905 265.966 73.9905ZM250.357 109.866H299.953V121.447H250.357V109.866ZM358.903 74.2423C360.246 74.2423 361.421 74.6199 362.428 75.3752C363.435 76.1304 364.148 77.1375 364.568 78.3963L390.877 161.099H374.764L354.875 94.1311C354.54 92.7884 354.204 91.4457 353.868 90.103C353.533 88.7603 353.239 87.4595 352.987 86.2007H349.463C349.211 87.4595 348.917 88.7603 348.581 90.103C348.246 91.4457 347.868 92.7884 347.449 94.1311L327.686 161.099H311.573L337.882 78.3963C338.217 77.1375 338.889 76.1304 339.896 75.3752C340.987 74.6199 342.204 74.2423 343.546 74.2423H358.903ZM373.505 123.964V136.301H328.818V123.964H373.505ZM413.742 73.9905C418.022 73.9905 422.344 74.0325 426.708 74.1164C431.156 74.1164 435.519 74.2003 439.799 74.3681C444.163 74.4521 448.191 74.7038 451.884 75.1234L451.128 86.7043H419.155C416.638 86.7043 414.749 87.2917 413.491 88.4666C412.232 89.6414 411.602 91.4877 411.602 94.0052V161.099H395.868V90.8583C395.868 85.5713 397.504 81.4593 400.777 78.5221C404.05 75.501 408.372 73.9905 413.742 73.9905ZM398.008 111.251H446.345V122.831H398.008V111.251ZM473.513 73.9905C477.877 73.9905 482.325 73.9905 486.856 73.9905C491.472 73.9905 496.004 74.0744 500.451 74.2423C504.899 74.4101 509.095 74.6619 513.039 74.9975L512.284 86.7043H478.297C475.947 86.7043 474.185 87.2917 473.01 88.4666C471.919 89.6414 471.373 91.4877 471.373 94.0052V141.336C471.373 143.853 471.919 145.699 473.01 146.874C474.185 148.049 475.947 148.637 478.297 148.637H512.284L513.039 160.343C509.095 160.679 504.899 160.931 500.451 161.099C496.004 161.183 491.472 161.225 486.856 161.225C482.325 161.308 477.877 161.35 473.513 161.35C468.142 161.35 463.821 159.882 460.548 156.945C457.359 153.924 455.722 149.895 455.638 144.86V90.4806C455.722 85.4455 457.359 81.4593 460.548 78.5221C463.821 75.501 468.142 73.9905 473.513 73.9905ZM457.904 109.866H507.5V121.447H457.904V109.866ZM533.471 74.2423V140.958C533.471 143.392 534.1 145.238 535.359 146.497C536.702 147.672 538.59 148.259 541.024 148.259H571.738L572.493 160.217C566.787 160.721 560.829 161.015 554.618 161.099C548.492 161.266 542.408 161.35 536.366 161.35C529.988 161.35 525.289 159.714 522.268 156.441C519.33 153.168 517.862 149.014 517.862 143.979V74.2423H533.471Z" fill="#F5F5FA"/>
</svg>
