<svg width="324" height="324" viewBox="0 0 324 324" fill="none" xmlns="http://www.w3.org/2000/svg">
<path d="M155.216 20.1425C156.309 20.0887 157.195 20.173 157.875 20.3957C158.554 20.6041 159.058 21.0061 159.386 21.6018C159.727 22.1825 159.925 23.0264 159.98 24.1335C160.021 24.9567 159.962 25.6425 159.804 26.191C159.645 26.7252 159.374 27.144 158.991 27.4475C158.607 27.7509 158.099 27.968 157.465 28.0989L157.469 28.184C157.714 28.2431 157.954 28.3593 158.191 28.5326C158.427 28.706 158.644 28.93 158.843 29.2048C159.041 29.4796 159.199 29.8061 159.318 30.1845L161.038 34.7736L159.547 34.847L157.915 30.2962C157.686 29.6957 157.388 29.2764 157.02 29.0384C156.667 28.7997 156.228 28.6933 155.703 28.7192C154.865 28.7604 154.12 28.7971 153.467 28.8293C152.828 28.8466 152.295 28.8586 151.868 28.8654C151.442 28.8721 151.122 28.8737 150.908 28.87L150.917 27.7385L155.537 27.5109C156.331 27.4576 156.951 27.3346 157.396 27.1419C157.856 26.9343 158.174 26.6056 158.351 26.1558C158.527 25.6918 158.596 25.0624 158.557 24.2676C158.517 23.4586 158.387 22.839 158.166 22.4088C157.946 21.9786 157.597 21.6898 157.121 21.5426C156.658 21.3946 156.029 21.3402 155.235 21.3794C154.099 21.4353 153.12 21.4907 152.298 21.5454C151.474 21.5859 150.921 21.6203 150.638 21.6485L150.286 20.5774C150.809 20.4947 151.296 20.428 151.749 20.3773C152.202 20.3265 152.698 20.2879 153.237 20.2613C153.79 20.2198 154.45 20.1802 155.216 20.1425ZM151.67 20.5092L152.394 35.1993L151.01 35.2674L150.286 20.5774L151.67 20.5092Z" fill="#F5F5FA"/>
<path d="M139.593 21.903C140.282 21.8012 140.978 21.6983 141.681 21.5944C142.384 21.4905 143.082 21.4017 143.775 21.328C144.48 21.2381 145.166 21.1655 145.833 21.11L145.928 22.1948L140.003 23.0706C139.539 23.1392 139.199 23.3187 138.984 23.6092C138.782 23.8975 138.718 24.2877 138.79 24.7798L140.149 33.9735C140.222 34.4656 140.398 34.8274 140.676 35.0592C140.967 35.2749 141.344 35.3484 141.808 35.2798L147.733 34.4039L147.952 35.4489C147.298 35.5887 146.62 35.7176 145.919 35.8356C145.233 35.9515 144.538 36.0614 143.835 36.1653C143.134 36.2832 142.439 36.3931 141.75 36.4949C140.977 36.6092 140.319 36.4838 139.777 36.1187C139.247 35.7374 138.928 35.1883 138.822 34.4714L137.376 24.6871C137.268 23.9561 137.414 23.3385 137.813 22.8341C138.227 22.3277 138.82 22.0173 139.593 21.903ZM138.308 28.5141L145.836 27.4013L146.001 28.5189L138.473 29.6317L138.308 28.5141Z" fill="#F5F5FA"/>
<path d="M128.374 23.9786C129.464 23.7095 130.365 23.626 131.078 23.728C131.791 23.8301 132.364 24.1643 132.797 24.7308C133.24 25.2801 133.603 26.1273 133.885 27.2724C134.168 28.4175 134.25 29.3414 134.131 30.0442C134.011 30.7469 133.665 31.3008 133.092 31.7058C132.532 32.1074 131.721 32.4394 130.659 32.7017C130.093 32.8413 129.554 32.9673 129.04 33.0795C128.523 33.1779 128.047 33.2662 127.612 33.3442C127.188 33.4049 126.819 33.4521 126.505 33.4857C126.205 33.5158 125.997 33.5307 125.88 33.5304L125.732 32.6666C126.436 32.4929 127.174 32.3106 127.947 32.1199C128.719 31.9291 129.478 31.7418 130.223 31.5579C130.978 31.3567 131.555 31.112 131.952 30.8236C132.363 30.5319 132.609 30.1345 132.689 29.6315C132.767 29.1148 132.703 28.4425 132.499 27.6147C132.288 26.7594 132.029 26.1279 131.724 25.7203C131.418 25.3127 131.016 25.0754 130.516 25.0085C130.03 24.9381 129.408 24.9966 128.649 25.184C127.546 25.4565 126.595 25.6984 125.799 25.9098C124.998 26.1073 124.464 26.254 124.195 26.3497L123.639 25.3451C124.136 25.1639 124.602 25.005 125.037 24.8684C125.471 24.7318 125.951 24.5988 126.475 24.4693C126.996 24.3261 127.629 24.1625 128.374 23.9786ZM124.984 25.013L128.51 39.2921L127.165 39.6242L123.639 25.3451L124.984 25.013Z" fill="#F5F5FA"/>
<path d="M113.514 28.3575C114.503 28.0005 115.384 27.8259 116.158 27.8338C116.926 27.8283 117.619 28.0314 118.236 28.4432C118.848 28.8417 119.414 29.4683 119.934 30.323C120.454 31.1777 120.956 32.2734 121.438 33.61C121.921 34.9466 122.235 36.1099 122.381 37.0997C122.526 38.0895 122.493 38.9399 122.282 39.6509C122.065 40.3485 121.662 40.9473 121.072 41.4473C120.477 41.934 119.685 42.3559 118.696 42.7129C117.707 43.07 116.828 43.2512 116.06 43.2567C115.286 43.2488 114.594 43.0457 113.981 42.6473C113.364 42.2354 112.789 41.6046 112.256 40.7547C111.736 39.9 111.234 38.8043 110.752 37.4677C110.269 36.1311 109.955 34.9678 109.809 33.978C109.677 32.9834 109.719 32.1372 109.935 31.4396C110.147 30.7287 110.55 30.1299 111.145 29.6432C111.735 29.1431 112.525 28.7146 113.514 28.3575ZM113.941 29.5404C112.952 29.8975 112.233 30.376 111.785 30.9759C111.345 31.5577 111.162 32.3264 111.235 33.282C111.308 34.2377 111.615 35.464 112.155 36.961C112.696 38.4581 113.243 39.5976 113.797 40.3795C114.351 41.1615 114.986 41.6425 115.701 41.8227C116.424 41.9846 117.28 41.8871 118.269 41.53C119.258 41.1729 119.973 40.7035 120.412 40.1218C120.847 39.5267 121.028 38.7513 120.955 37.7957C120.895 36.8352 120.595 35.6064 120.055 34.1094C119.514 32.6124 118.96 31.4753 118.393 30.6982C117.839 29.9162 117.206 29.4419 116.497 29.2751C115.782 29.0949 114.93 29.1834 113.941 29.5404Z" fill="#F5F5FA"/>
<path d="M98.8093 34.9109L103.97 45.7452C104.178 46.1814 104.462 46.4633 104.822 46.591C105.176 46.7058 105.577 46.6562 106.026 46.4423L110.972 44.0864L111.478 45.0495C110.655 45.5042 109.811 45.9457 108.945 46.3741C108.079 46.8025 107.209 47.2245 106.337 47.6401C105.503 48.0373 104.783 48.1126 104.178 47.8658C103.566 47.6063 103.105 47.1493 102.793 46.495L97.5584 35.5068L98.8093 34.9109Z" fill="#F5F5FA"/>
<path d="M88.3078 40.6591C88.9073 40.3049 89.513 39.9471 90.1247 39.5857C90.7364 39.2243 91.3493 38.8787 91.9633 38.549C92.5823 38.1999 93.1901 37.8738 93.7868 37.5708L94.2847 38.5393L89.1277 41.5859C88.7239 41.8244 88.477 42.1188 88.3869 42.4692C88.309 42.8123 88.3965 43.1979 88.6495 43.6262L93.3766 51.6278C93.6296 52.056 93.9288 52.325 94.2741 52.4345C94.6244 52.5247 95.0015 52.4505 95.4052 52.2119L100.562 49.1653L101.159 50.0504C100.606 50.4268 100.027 50.8019 99.4226 51.1755C98.8303 51.5419 98.2283 51.9058 97.6166 52.2672C97.012 52.6409 96.41 53.0048 95.8105 53.3589C95.1376 53.7565 94.4811 53.8885 93.841 53.755C93.206 53.602 92.7042 53.2135 92.3355 52.5895L87.3048 44.074C86.9289 43.4377 86.8309 42.8107 87.0105 42.1929C87.2025 41.5679 87.6349 41.0566 88.3078 40.6591ZM89.6117 47.2665L96.1636 43.3959L96.7382 44.3686L90.1864 48.2392L89.6117 47.2665Z" fill="#F5F5FA"/>
<path d="M82.9822 43.9269L87.64 58.2332C87.6726 58.3501 87.6738 58.4724 87.6437 58.5999C87.6052 58.7159 87.5343 58.8116 87.431 58.887L86.1739 59.804C86.0705 59.8794 85.952 59.9219 85.8183 59.9315C85.6877 59.9212 85.5774 59.8785 85.4874 59.8034L73.2869 50.9994L74.4579 50.1451L84.6083 57.6216C84.8363 57.7895 85.0543 57.9558 85.2625 58.1206C85.4821 58.277 85.7002 58.4433 85.9167 58.6196L86.3817 58.2804C86.2914 58.012 86.1996 57.7536 86.1063 57.5051C86.0046 57.2451 85.9143 56.9767 85.8356 56.6999L81.794 44.7937L82.9822 43.9269Z" fill="#F5F5FA"/>
<path d="M66.3345 57.0416C66.8549 56.5789 67.3805 56.1114 67.9115 55.6393C68.4424 55.1671 68.9775 54.7103 69.5167 54.2688C70.0571 53.8073 70.591 53.3705 71.1184 52.9585L71.7931 53.8134L67.3171 57.7937C66.9667 58.1053 66.7809 58.4417 66.7598 58.8028C66.7492 59.1545 66.9092 59.5162 67.2397 59.8878L73.4156 66.8327C73.7461 67.2044 74.0913 67.4108 74.4513 67.452C74.8124 67.4732 75.1682 67.328 75.5186 67.0163L79.9945 63.036L80.7506 63.7899C80.2798 64.2656 79.7837 64.7449 79.2622 65.2276C78.7513 65.701 78.2303 66.1737 77.6994 66.6459C77.1779 67.1287 76.657 67.6014 76.1366 68.0641C75.5526 68.5835 74.9337 68.8391 74.2799 68.831C73.6273 68.8028 73.0602 68.518 72.5786 67.9764L66.006 60.5856C65.515 60.0334 65.2983 59.4369 65.356 58.7961C65.4243 58.1458 65.7505 57.561 66.3345 57.0416ZM68.8832 63.2756L74.5697 58.2187L75.3204 59.063L69.6339 64.1198L68.8832 63.2756Z" fill="#F5F5FA"/>
<path d="M57.0716 66.0254C57.7633 65.2715 58.4488 64.724 59.1281 64.383C59.7969 64.0324 60.4949 63.8917 61.2221 63.961C61.9492 64.0303 62.736 64.3182 63.5826 64.8249C64.4291 65.3316 65.3707 66.0605 66.4073 67.0116C67.444 67.9627 68.251 68.8382 68.8286 69.638C69.4061 70.4379 69.7606 71.1971 69.8921 71.9156C70.0236 72.6341 69.9487 73.3464 69.6673 74.0525C69.3754 74.7489 68.8836 75.4741 68.1919 76.2281C67.5194 76.961 66.8841 77.622 66.2858 78.211C65.6981 78.8096 65.1335 79.3619 64.592 79.868L64.1932 78.6631C64.6264 78.212 65.0932 77.7242 65.5936 77.1998C66.1036 76.6649 66.6661 76.0624 67.2809 75.3922C67.9726 74.6383 68.3789 73.9118 68.4996 73.2126C68.6196 72.4934 68.4257 71.7273 67.918 70.9143C67.4199 70.0909 66.5897 69.146 65.4274 68.0796C64.2651 67.0133 63.2524 66.2673 62.3892 65.8418C61.5357 65.4058 60.7558 65.2785 60.0495 65.4597C59.3528 65.6305 58.6586 66.0929 57.9669 66.8468C57.3616 67.5065 56.8193 68.1081 56.3398 68.6518C55.8603 69.1954 55.4053 69.7229 54.9747 70.2342L53.7544 69.9247C54.2121 69.3418 54.7139 68.7318 55.2598 68.0948C55.8048 67.4377 56.4087 66.7479 57.0716 66.0254ZM54.6911 68.9038L65.5287 78.847L64.592 79.868L53.7544 69.9247L54.6911 68.9038Z" fill="#F5F5FA"/>
<path d="M44.3167 82.1476C44.9891 81.1613 45.6154 80.4445 46.1955 79.9973C46.7718 79.5303 47.377 79.3237 48.011 79.3776C48.645 79.4314 49.3789 79.7425 50.2125 80.3109C51.0814 80.9032 51.6327 81.5199 51.8665 82.1608C52.1083 82.79 52.0163 83.4926 51.5904 84.2686L51.6609 84.3166C52.3595 83.4686 53.1047 83.0565 53.8967 83.0805C54.6967 83.0927 55.584 83.4311 56.5585 84.0955C57.3922 84.6638 57.9499 85.2332 58.2317 85.8037C58.5216 86.3625 58.5683 86.9877 58.3719 87.6793C58.1638 88.363 57.7476 89.1628 57.1232 90.0786C56.6669 90.7479 56.2688 91.3192 55.9289 91.7926C55.6087 92.2622 55.3008 92.6887 55.0052 93.0719C54.7095 93.4551 54.392 93.8578 54.0526 94.2799L53.3048 93.409C53.4847 93.1704 53.8206 92.7029 54.3126 92.0064C54.8047 91.3099 55.3709 90.492 56.0112 89.5527C56.4915 88.8482 56.809 88.2563 56.9638 87.7771C57.1148 87.2781 57.086 86.8284 56.8773 86.4282C56.6568 86.0199 56.2237 85.5957 55.5779 85.1554C54.8852 84.6831 54.2869 84.4128 53.7831 84.3446C53.2873 84.2645 52.815 84.3897 52.3662 84.7201C51.9254 85.0387 51.447 85.5639 50.9309 86.2956L48.3614 90.0646L47.4632 89.4523L50.0327 85.6832C50.4612 85.0294 50.7448 84.4747 50.8836 84.0189C51.0186 83.5434 50.9777 83.1113 50.761 82.7228C50.5523 82.3226 50.1486 81.9183 49.5498 81.5101C48.9275 81.0858 48.3879 80.8556 47.931 80.8193C47.4822 80.7713 47.051 80.9245 46.6374 81.2789C46.2318 81.6215 45.7809 82.1568 45.2846 82.8848C44.9084 83.4367 44.5682 83.9357 44.264 84.3819C43.9598 84.828 43.7015 85.2195 43.4891 85.5563C43.265 85.885 43.0966 86.1572 42.984 86.3729L41.9001 85.9951C42.1173 85.5756 42.3401 85.1857 42.5685 84.8254C42.7851 84.4572 43.0336 84.0676 43.3137 83.6566C43.5902 83.2259 43.9245 82.7229 44.3167 82.1476ZM42.6686 84.8679L54.821 93.1527L54.0526 94.2799L41.9001 85.9951L42.6686 84.8679Z" fill="#F5F5FA"/>
<path d="M36.508 95.3281C36.8422 94.7172 37.1798 94.1001 37.5208 93.4768C37.8618 92.8534 38.2119 92.2431 38.571 91.6459C38.9244 91.0294 39.2801 90.4384 39.6381 89.8729L40.5611 90.4507L37.6865 95.7055C37.4614 96.1169 37.3997 96.4962 37.5013 96.8434C37.6098 97.1781 37.8822 97.4648 38.3186 97.7035L46.472 102.164C46.9083 102.403 47.3029 102.481 47.6557 102.398C48.0029 102.297 48.289 102.04 48.5141 101.629L51.3887 96.3739L52.3544 96.8293C52.0713 97.4357 51.7654 98.054 51.4369 98.6842C51.1152 99.3019 50.7838 99.9224 50.4428 100.546C50.1143 101.176 49.7829 101.796 49.4488 102.407C49.0737 103.093 48.5769 103.542 47.9586 103.755C47.3346 103.948 46.7047 103.87 46.0688 103.523L37.3918 98.7758C36.7435 98.4212 36.3387 97.9324 36.1773 97.3096C36.0227 96.6743 36.1329 96.0138 36.508 95.3281ZM41.0066 100.34L44.6587 93.6642L45.6499 94.2064L41.9977 100.882L41.0066 100.34Z" fill="#F5F5FA"/>
<path d="M33.1497 101.388L45.2232 109.701C45.3133 109.782 45.3798 109.885 45.4226 110.009C45.4654 110.132 45.4582 110.267 45.4008 110.412L44.783 111.979C44.7309 112.111 44.6443 112.214 44.5233 112.289C44.4075 112.35 44.2849 112.371 44.1554 112.35L32.4737 110.538C32.1884 110.487 31.9072 110.445 31.6299 110.412C31.3447 110.36 31.0661 110.312 30.794 110.265L30.6142 110.722C30.8445 110.873 31.0814 111.028 31.325 111.185C31.5685 111.342 31.8054 111.497 32.0357 111.649L41.8093 118.299C41.9179 118.372 41.9909 118.477 42.0285 118.614C42.0714 118.738 42.0667 118.866 42.0146 118.998L41.3889 120.585C41.3368 120.717 41.2502 120.82 41.1292 120.895C41.0134 120.956 40.8974 120.979 40.7812 120.964L26.2834 118.798L26.823 117.429L38.9128 119.31C39.1768 119.338 39.4488 119.384 39.7289 119.449C40.0141 119.5 40.306 119.554 40.6044 119.611L40.7999 119.115C40.5432 118.953 40.2997 118.796 40.0693 118.644C39.8258 118.487 39.5889 118.332 39.3586 118.18L29.6643 111.561C29.5293 111.478 29.4404 111.374 29.3976 111.25C29.36 111.113 29.3672 110.978 29.4194 110.846L30.0137 109.339C30.0659 109.207 30.1498 109.11 30.2657 109.049C30.3815 108.988 30.5173 108.972 30.6731 109.003L42.2834 110.764C42.5739 110.802 42.8591 110.854 43.1391 110.918C43.4112 110.964 43.6872 111.02 43.9672 111.084L44.1706 110.569C43.927 110.412 43.6875 110.264 43.452 110.125C43.2084 109.968 42.9715 109.813 42.7412 109.661L32.6101 102.756L33.1497 101.388Z" fill="#F5F5FA"/>
<path d="M30.6577 131.173C30.7973 130.578 31.0107 130.197 31.2978 130.031C31.5882 129.851 32.0308 129.831 32.6257 129.97L32.854 130.024C33.4765 130.17 33.8778 130.388 34.0578 130.679C34.241 130.955 34.2629 131.391 34.1232 131.986L34.0697 132.214C33.9236 132.837 33.7053 133.238 33.4149 133.418C33.1246 133.598 32.6681 133.615 32.0455 133.469L31.8173 133.415C31.2224 133.276 30.8349 133.061 30.6549 132.77C30.4749 132.48 30.458 132.023 30.6041 131.401L30.6577 131.173Z" fill="#F5F5FA"/>
<path d="M20.5952 147.157L32.5079 148.609C32.9875 148.667 33.3776 148.579 33.6783 148.343C33.9649 148.106 34.1382 147.741 34.1984 147.247L34.8609 141.809L35.9452 141.898C35.8882 142.836 35.8083 143.786 35.7056 144.747C35.6028 145.708 35.493 146.668 35.3761 147.627C35.2644 148.544 34.9421 149.192 34.4092 149.571C33.8622 149.948 33.229 150.092 32.5096 150.005L20.4276 148.533L20.5952 147.157Z" fill="#F5F5FA"/>
<path d="M19.8177 159.105C19.8401 158.409 19.8627 157.706 19.8856 156.995C19.9085 156.285 19.9453 155.583 19.9961 154.888C20.0332 154.178 20.0838 153.49 20.1479 152.824L21.2324 152.923L21.0396 158.909C21.0245 159.378 21.1407 159.744 21.3881 160.008C21.636 160.258 22.0085 160.391 22.5056 160.407L31.7944 160.706C32.2915 160.722 32.6789 160.614 32.9565 160.381C33.2204 160.133 33.3599 159.775 33.375 159.307L33.5678 153.32L34.6351 153.29C34.6562 153.959 34.6625 154.649 34.6538 155.36C34.6456 156.056 34.63 156.759 34.6072 157.47C34.5985 158.18 34.583 158.883 34.5605 159.579C34.5354 160.361 34.2949 160.986 33.839 161.454C33.3694 161.908 32.7724 162.124 32.0481 162.1L22.1627 161.782C21.4241 161.758 20.8422 161.505 20.417 161.022C19.9923 160.525 19.7925 159.886 19.8177 159.105ZM26.0944 161.546L26.3394 153.94L27.4685 153.977L27.2236 161.582L26.0944 161.546Z" fill="#F5F5FA"/>
<path d="M20.1082 171.741C20.0681 171.06 20.0346 170.372 20.0078 169.676C19.9669 168.981 19.9339 168.299 19.9088 167.632C19.8829 166.95 19.8719 166.281 19.8761 165.626L20.9663 165.648L21.301 171.329C21.3303 171.826 21.4805 172.201 21.7517 172.456C22.0221 172.696 22.4056 172.801 22.9021 172.772L34.8821 172.066L34.9648 173.471L22.7507 174.19C21.9847 174.235 21.368 174.037 20.9007 173.595C20.4183 173.139 20.1541 172.521 20.1082 171.741ZM26.7511 173.592L26.3136 166.165L27.4414 166.099L27.8789 173.525L26.7511 173.592Z" fill="#F5F5FA"/>
<path d="M21.3867 183.292C21.3669 183.165 21.3845 183.048 21.4394 182.938C21.4921 182.815 21.5794 182.73 21.7014 182.682L35.0746 175.612L35.298 177.045L23.6777 183.042C23.4899 183.129 23.3032 183.223 23.1175 183.324C22.9179 183.427 22.7312 183.521 22.5574 183.605L22.6526 184.216C22.8439 184.244 23.0504 184.276 23.2719 184.314C23.4773 184.339 23.6837 184.372 23.8912 184.411L36.7861 186.585L37.0094 188.018L22.1186 185.357C21.9857 185.334 21.8764 185.279 21.7909 185.192C21.7054 185.105 21.6527 184.998 21.633 184.871L21.3867 183.292ZM29.4453 179.079L30.6458 178.892L31.7955 186.263L30.595 186.451L29.4453 179.079Z" fill="#F5F5FA"/>
<path d="M24.6601 199.094C24.4863 198.42 24.3106 197.739 24.1332 197.051C23.9558 196.363 23.794 195.678 23.6476 194.997C23.484 194.305 23.3394 193.631 23.2139 192.973L24.2826 192.764L25.7781 198.564C25.8952 199.018 26.1095 199.337 26.4211 199.521C26.7291 199.691 27.1239 199.714 27.6055 199.59L36.6048 197.269C37.0864 197.145 37.4278 196.932 37.6289 196.631C37.8128 196.319 37.8461 195.937 37.729 195.482L36.2335 189.682L37.2496 189.354C37.4576 189.99 37.6572 190.651 37.8484 191.335C38.036 192.006 38.2185 192.685 38.3959 193.373C38.5871 194.058 38.7696 194.737 38.9435 195.411C39.1386 196.168 39.0832 196.836 38.7773 197.413C38.454 197.981 37.9415 198.355 37.2397 198.536L27.6625 201.006C26.9469 201.19 26.3173 201.11 25.7737 200.766C25.2264 200.409 24.8553 199.851 24.6601 199.094ZM31.3699 199.676L29.4699 192.307L30.5638 192.025L32.4638 199.394L31.3699 199.676Z" fill="#F5F5FA"/>
<path d="M28.2884 211.021C27.8789 209.9 27.6616 208.973 27.6363 208.241C27.5928 207.501 27.7777 206.888 28.191 206.405C28.6043 205.921 29.2849 205.506 30.2326 205.16C31.2204 204.799 32.0428 204.71 32.6999 204.894C33.3521 205.064 33.8693 205.549 34.2517 206.347L34.3317 206.318C34.0498 205.256 34.1494 204.41 34.6306 203.781C35.1068 203.138 35.8989 202.614 37.0068 202.209C37.9545 201.863 38.7423 201.742 39.3701 201.845C39.9931 201.936 40.5283 202.262 40.9759 202.825C41.4101 203.392 41.8173 204.197 42.1975 205.238C42.4754 205.999 42.7076 206.655 42.8941 207.208C43.0891 207.741 43.2561 208.24 43.3952 208.704C43.5342 209.167 43.6763 209.66 43.8215 210.182L42.678 210.282C42.589 209.997 42.4049 209.451 42.1257 208.645C41.8466 207.84 41.5121 206.903 41.1221 205.835C40.8296 205.034 40.5337 204.431 40.2345 204.026C39.9171 203.612 39.5349 203.374 39.088 203.31C38.6278 203.251 38.0306 203.356 37.2965 203.624C36.5089 203.912 35.9406 204.24 35.5914 204.61C35.2374 204.966 35.0638 205.423 35.0707 205.98C35.0726 206.524 35.2205 207.219 35.5142 208.064L37.079 212.349L36.0579 212.722L34.4931 208.437C34.2116 207.708 33.9262 207.154 33.6367 206.776C33.329 206.389 32.9542 206.17 32.5122 206.12C32.0653 206.056 31.5015 206.149 30.8207 206.397C30.1133 206.656 29.6116 206.96 29.3159 207.31C29.0153 207.647 28.8884 208.086 28.9353 208.629C28.9773 209.158 29.1494 209.837 29.4516 210.664C29.6807 211.292 29.8879 211.859 30.0731 212.366C30.2584 212.873 30.4259 213.311 30.5758 213.68C30.7123 214.054 30.8353 214.35 30.9448 214.567L30.0061 215.227C29.7918 214.806 29.6049 214.398 29.4453 214.002C29.2723 213.612 29.1006 213.183 28.93 212.716C28.7411 212.24 28.5273 211.675 28.2884 211.021ZM29.5381 213.946L43.3535 208.901L43.8215 210.182L30.0061 215.227L29.5381 213.946Z" fill="#F5F5FA"/>
<path d="M41.4378 222.812C41.1621 222.267 41.0807 221.838 41.1937 221.527C41.3003 221.202 41.6262 220.902 42.1715 220.626L42.3807 220.52C42.9514 220.232 43.399 220.141 43.7236 220.247C44.0418 220.341 44.3388 220.661 44.6145 221.206L44.7203 221.415C45.0089 221.986 45.0999 222.434 44.9933 222.758C44.8867 223.083 44.5481 223.389 43.9775 223.678L43.7682 223.784C43.2229 224.059 42.788 224.144 42.4634 224.037C42.1388 223.931 41.8322 223.592 41.5436 223.022L41.4378 222.812Z" fill="#F5F5FA"/>
<path d="M43.1309 240.515C42.5258 239.604 42.1451 238.799 41.9889 238.101C41.8208 237.411 41.9089 236.773 42.253 236.186C42.5774 235.596 43.2013 234.994 44.1248 234.381C44.8116 233.925 45.431 233.625 45.983 233.48C46.5233 233.343 47.0218 233.362 47.4786 233.536C47.9355 233.711 48.3821 234.037 48.8187 234.515L48.8897 234.468C48.8153 234.227 48.7922 233.961 48.8204 233.669C48.8486 233.378 48.93 233.076 49.0646 232.765C49.1993 232.454 49.3989 232.151 49.6636 231.856L52.7279 228.031L53.5531 229.275L50.4771 233.005C50.078 233.508 49.8701 233.979 49.8534 234.416C49.8289 234.842 49.962 235.274 50.2528 235.712C50.7164 236.41 51.129 237.032 51.4905 237.577C51.8323 238.117 52.1151 238.569 52.339 238.932C52.5629 239.295 52.7279 239.57 52.8339 239.755L51.8573 240.326L49.2994 236.473C48.8475 235.817 48.4248 235.347 48.0312 235.063C47.618 234.774 47.1728 234.669 46.6958 234.747C46.2069 234.833 45.6309 235.095 44.9679 235.535C44.293 235.983 43.827 236.412 43.57 236.821C43.313 237.231 43.2431 237.678 43.3603 238.163C43.4697 238.636 43.7444 239.204 44.1845 239.867C44.8132 240.815 45.3613 241.628 45.8289 242.306C46.2847 242.993 46.5971 243.451 46.7661 243.68L46.0254 244.53C45.6873 244.123 45.3806 243.738 45.1055 243.375C44.8303 243.012 44.5435 242.605 44.2448 242.155C43.9265 241.701 43.5552 241.155 43.1309 240.515ZM45.2592 243.375L57.5136 235.242L58.2798 236.396L46.0254 244.53L45.2592 243.375Z" fill="#F5F5FA"/>
<path d="M52.6328 253.042C52.1931 252.502 51.7489 251.956 51.3002 251.405C50.8515 250.854 50.4183 250.3 50.0006 249.742C49.5629 249.182 49.1497 248.63 48.761 248.085L49.6443 247.448L53.4268 252.092C53.723 252.456 54.051 252.656 54.4108 252.693C54.7617 252.719 55.13 252.575 55.5156 252.261L62.7217 246.392C63.1073 246.078 63.3286 245.742 63.3853 245.384C63.4221 245.024 63.2925 244.662 62.9963 244.299L59.2138 239.654L59.9998 238.932C60.4546 239.423 60.9119 239.939 61.3716 240.481C61.8224 241.012 62.2721 241.553 62.7208 242.104C63.1805 242.646 63.6302 243.187 64.07 243.727C64.5635 244.333 64.7921 244.962 64.7556 245.615C64.6992 246.266 64.39 246.82 63.828 247.277L56.1592 253.523C55.5863 253.99 54.9809 254.181 54.3432 254.095C53.6965 253.999 53.1264 253.648 52.6328 253.042ZM58.9715 250.766L54.1659 244.865L55.0418 244.152L59.8474 250.052L58.9715 250.766Z" fill="#F5F5FA"/>
<path d="M60.1533 261.622C59.3648 260.823 58.832 260.091 58.555 259.426C58.2781 258.761 58.2724 258.097 58.5381 257.436C58.7836 256.774 59.3261 256.029 60.1656 255.201C61.0051 254.372 61.7573 253.83 62.4222 253.573C63.0872 253.316 63.7402 253.33 64.3814 253.616C65.0127 253.891 65.7126 254.419 66.4812 255.197C66.8904 255.612 67.2747 256.012 67.6339 256.396C67.983 256.79 68.3021 257.154 68.5913 257.487C68.8604 257.821 69.0896 258.114 69.2789 258.366C69.4581 258.609 69.5776 258.78 69.6372 258.881L68.9702 259.449C68.4612 258.934 67.9271 258.392 67.3682 257.826C66.8092 257.26 66.2602 256.703 65.7212 256.157C65.1621 255.611 64.6571 255.241 64.2062 255.047C63.7453 254.843 63.2781 254.835 62.8046 255.022C62.3209 255.22 61.7757 255.619 61.1688 256.217C60.5417 256.836 60.1311 257.381 59.9371 257.852C59.743 258.323 59.745 258.791 59.9429 259.254C60.1308 259.707 60.4993 260.212 61.0483 260.769C61.8468 261.578 62.5406 262.271 63.1296 262.847C63.7086 263.434 64.108 263.819 64.3278 264.001L63.7485 264.992C63.3387 264.658 62.964 264.339 62.6244 264.035C62.2847 263.731 61.9253 263.387 61.546 263.003C61.1565 262.628 60.6923 262.168 60.1533 261.622ZM62.7753 264.006L73.2439 253.675L74.2171 254.661L63.7485 264.992L62.7753 264.006Z" fill="#F5F5FA"/>
<path d="M71.5147 272.153C70.7021 271.486 70.1015 270.818 69.7128 270.149C69.3151 269.491 69.1355 268.792 69.1739 268.051C69.2032 267.321 69.4522 266.514 69.9208 265.63C70.3894 264.746 71.0747 263.755 71.9767 262.657C72.8786 261.559 73.7176 260.694 74.4937 260.063C75.2698 259.432 76.0175 259.025 76.7367 258.843C77.4469 258.673 78.1677 258.713 78.8992 258.964C79.6216 259.227 80.3891 259.692 81.2017 260.359C82.0143 261.027 82.6194 261.689 83.0171 262.347C83.4058 263.015 83.5854 263.715 83.5561 264.445C83.5177 265.185 83.2696 266.002 82.812 266.895C82.3434 267.779 81.6581 268.77 80.7562 269.868C79.8542 270.967 79.0152 271.831 78.2391 272.463C77.4521 273.085 76.7034 273.482 75.9932 273.652C75.274 273.834 74.5531 273.794 73.8307 273.531C73.0993 273.28 72.3273 272.82 71.5147 272.153ZM72.3129 271.181C73.1255 271.849 73.9042 272.222 74.649 272.3C75.3737 272.38 76.128 272.145 76.912 271.593C77.6959 271.042 78.593 270.151 79.6031 268.921C80.6133 267.691 81.3127 266.638 81.7013 265.762C82.0899 264.886 82.1789 264.095 81.9683 263.389C81.7377 262.684 81.2161 261.998 80.4034 261.331C79.5908 260.664 78.8222 260.29 78.0974 260.209C77.3637 260.14 76.6048 260.381 75.8209 260.932C75.026 261.475 74.1234 262.361 73.1132 263.591C72.1031 264.821 71.4091 265.878 71.0315 266.763C70.6429 267.64 70.5584 268.425 70.7781 269.121C70.9887 269.827 71.5003 270.514 72.3129 271.181Z" fill="#F5F5FA"/>
<path d="M84.6651 281.439L91.3369 271.464C91.6055 271.062 91.7026 270.674 91.6283 270.3C91.5461 269.937 91.2983 269.617 90.8849 269.341L86.3313 266.295L86.9002 265.368C87.7114 265.842 88.5226 266.342 89.3337 266.867C90.1448 267.393 90.952 267.924 91.7552 268.461C92.523 268.975 92.9557 269.555 93.0533 270.201C93.1429 270.86 92.9863 271.49 92.5834 272.092L85.8168 282.21L84.6651 281.439Z" fill="#F5F5FA"/>
<path d="M94.9751 287.525C94.3642 287.191 93.747 286.853 93.1236 286.512C92.5002 286.171 91.8899 285.821 91.2926 285.462C90.676 285.109 90.085 284.753 89.5195 284.395L90.0972 283.472L95.3524 286.346C95.7638 286.571 96.1431 286.633 96.4902 286.531C96.8249 286.423 97.1116 286.15 97.3503 285.714L101.81 277.56C102.048 277.124 102.126 276.729 102.044 276.376C101.942 276.029 101.686 275.743 101.274 275.518L96.0191 272.644L96.4744 271.678C97.0809 271.961 97.6992 272.267 98.3294 272.595C98.9471 272.917 99.5677 273.248 100.191 273.589C100.821 273.918 101.442 274.249 102.053 274.583C102.739 274.958 103.188 275.455 103.4 276.073C103.593 276.697 103.516 277.327 103.168 277.963L98.4227 286.641C98.0681 287.289 97.5794 287.694 96.9566 287.855C96.3213 288.01 95.6608 287.9 94.9751 287.525ZM99.9867 283.026L93.3102 279.374L93.8522 278.383L100.529 282.034L99.9867 283.026Z" fill="#F5F5FA"/>
<path d="M100.507 290.43L110.42 279.112C110.503 279.024 110.608 278.961 110.733 278.922C110.852 278.895 110.971 278.907 111.088 278.958L112.519 279.569C112.637 279.619 112.734 279.699 112.811 279.809C112.869 279.927 112.888 280.044 112.87 280.159L111.542 295.146L110.209 294.576L111.444 282.03C111.472 281.749 111.503 281.476 111.539 281.213C111.561 280.944 111.592 280.672 111.633 280.396L111.104 280.17C110.919 280.384 110.744 280.595 110.578 280.803C110.407 281.023 110.222 281.238 110.025 281.447L101.859 291.008L100.507 290.43Z" fill="#F5F5FA"/>
<path d="M120.29 298.032C119.626 297.821 118.955 297.608 118.278 297.393C117.601 297.179 116.935 296.952 116.28 296.715C115.607 296.486 114.958 296.251 114.335 296.008L114.724 294.991L120.434 296.803C120.881 296.944 121.265 296.932 121.586 296.766C121.893 296.595 122.122 296.272 122.273 295.798L125.083 286.94C125.234 286.466 125.234 286.063 125.086 285.733C124.919 285.412 124.613 285.18 124.166 285.038L118.456 283.227L118.718 282.192C119.367 282.353 120.033 282.535 120.714 282.736C121.382 282.933 122.055 283.139 122.732 283.354C123.414 283.555 124.086 283.761 124.75 283.972C125.495 284.208 126.031 284.609 126.359 285.175C126.668 285.75 126.713 286.383 126.494 287.074L123.503 296.502C123.28 297.206 122.878 297.697 122.298 297.975C121.704 298.249 121.035 298.268 120.29 298.032ZM124.344 292.654L117.09 290.352L117.432 289.276L124.685 291.577L124.344 292.654Z" fill="#F5F5FA"/>
<path d="M132.747 301.398C131.745 301.189 130.924 300.88 130.284 300.471C129.641 300.075 129.163 299.547 128.851 298.887C128.538 298.227 128.383 297.403 128.386 296.417C128.389 295.43 128.534 294.248 128.821 292.871C129.108 291.494 129.448 290.353 129.84 289.447C130.232 288.542 130.703 287.849 131.253 287.369C131.804 286.888 132.454 286.588 133.205 286.469C133.952 286.364 134.827 286.416 135.829 286.625C136.803 286.828 137.695 287.036 138.508 287.249C139.322 287.448 140.086 287.651 140.798 287.857L139.966 288.816C139.357 288.674 138.699 288.523 137.992 288.361C137.272 288.196 136.467 288.021 135.576 287.835C134.575 287.626 133.743 287.648 133.08 287.902C132.401 288.167 131.841 288.725 131.402 289.577C130.949 290.426 130.562 291.623 130.24 293.167C129.918 294.711 129.794 295.963 129.87 296.922C129.932 297.879 130.221 298.614 130.738 299.128C131.241 299.64 131.993 300 132.995 300.209C133.871 300.392 134.666 300.55 135.378 300.684C136.091 300.818 136.777 300.94 137.436 301.048L137.794 302.255C137.059 302.16 136.278 302.04 135.452 301.897C134.608 301.765 133.707 301.598 132.747 301.398ZM136.438 301.972L139.441 287.574L140.798 287.857L137.794 302.255L136.438 301.972Z" fill="#F5F5FA"/>
<path d="M153.124 304.116C151.932 304.042 150.996 303.87 150.315 303.601C149.619 303.344 149.132 302.93 148.854 302.357C148.576 301.785 148.468 300.995 148.531 299.988C148.595 298.938 148.843 298.149 149.275 297.621C149.692 297.091 150.343 296.811 151.227 296.78L151.232 296.695C150.146 296.528 149.411 296.099 149.027 295.406C148.628 294.712 148.465 293.776 148.538 292.599C148.6 291.592 148.804 290.822 149.151 290.288C149.483 289.753 149.996 289.393 150.691 289.208C151.385 289.038 152.285 288.986 153.391 289.055C154.2 289.104 154.894 289.154 155.475 289.205C156.042 289.24 156.566 289.286 157.047 289.344C157.527 289.402 158.035 289.469 158.572 289.545L158.206 290.633C157.909 290.601 157.335 290.551 156.485 290.484C155.635 290.417 154.642 290.349 153.508 290.279C152.657 290.227 151.986 290.256 151.495 290.368C150.989 290.494 150.617 290.749 150.38 291.133C150.142 291.531 149.999 292.12 149.95 292.9C149.899 293.737 149.972 294.389 150.171 294.857C150.356 295.324 150.705 295.666 151.219 295.883C151.718 296.099 152.414 296.241 153.306 296.311L157.859 296.591L157.792 297.677L153.239 297.396C152.458 297.362 151.837 297.402 151.374 297.515C150.896 297.643 150.546 297.899 150.323 298.283C150.086 298.667 149.945 299.221 149.9 299.944C149.854 300.696 149.932 301.278 150.134 301.689C150.322 302.099 150.674 302.391 151.191 302.565C151.692 302.739 152.383 302.853 153.262 302.907C153.929 302.948 154.532 302.985 155.071 303.019C155.61 303.052 156.078 303.074 156.476 303.084C156.873 303.108 157.193 303.114 157.436 303.1L157.666 304.225C157.194 304.253 156.745 304.261 156.319 304.249C155.892 304.251 155.43 304.237 154.933 304.206C154.422 304.189 153.819 304.159 153.124 304.116ZM156.304 304.141L157.21 289.461L158.572 289.545L157.666 304.225L156.304 304.141Z" fill="#F5F5FA"/>
<path d="M168.444 304.086C167.748 304.112 167.045 304.137 166.335 304.163C165.625 304.188 164.922 304.2 164.225 304.196C163.514 304.208 162.825 304.204 162.156 304.186L162.18 303.097L168.166 302.881C168.635 302.864 168.992 302.723 169.239 302.458C169.471 302.194 169.578 301.813 169.56 301.316L169.224 292.028C169.206 291.531 169.071 291.152 168.82 290.891C168.555 290.645 168.188 290.53 167.72 290.547L161.734 290.763L161.632 289.701C162.297 289.634 162.985 289.581 163.695 289.541C164.39 289.501 165.093 289.469 165.803 289.443C166.512 289.403 167.215 289.371 167.911 289.346C168.692 289.317 169.332 289.515 169.831 289.937C170.316 290.375 170.571 290.956 170.598 291.68L170.955 301.564C170.982 302.302 170.769 302.9 170.316 303.357C169.849 303.815 169.225 304.058 168.444 304.086ZM170.451 297.658L162.847 297.933L162.806 296.804L170.41 296.529L170.451 297.658Z" fill="#F5F5FA"/>
<path d="M175.368 303.874L176.339 289.248C176.363 289.129 176.417 289.019 176.502 288.919C176.586 288.819 176.705 288.756 176.86 288.731L178.522 288.461C178.662 288.438 178.795 288.46 178.921 288.526C179.033 288.594 179.113 288.689 179.162 288.811L183.578 299.776C183.68 300.047 183.787 300.311 183.901 300.566C184.002 300.837 184.103 301.102 184.202 301.359L184.686 301.28C184.699 301.005 184.711 300.722 184.721 300.432C184.732 300.143 184.744 299.86 184.756 299.585L185.474 287.785C185.481 287.654 185.534 287.538 185.633 287.435C185.717 287.335 185.83 287.274 185.97 287.251L187.653 286.977C187.793 286.955 187.927 286.976 188.052 287.042C188.164 287.11 188.243 287.198 188.29 287.306L193.841 300.873L192.39 301.109L187.824 289.757C187.713 289.516 187.614 289.258 187.526 288.985C187.424 288.713 187.321 288.435 187.217 288.149L186.691 288.235C186.683 288.539 186.673 288.828 186.66 289.104C186.649 289.394 186.638 289.676 186.625 289.952L185.894 301.667C185.891 301.826 185.847 301.956 185.763 302.056C185.664 302.158 185.545 302.221 185.404 302.243L183.805 302.503C183.665 302.526 183.539 302.503 183.427 302.435C183.315 302.367 183.233 302.258 183.18 302.108L178.756 291.23C178.64 290.961 178.539 290.69 178.451 290.416C178.351 290.159 178.258 289.893 178.17 289.619L177.623 289.708C177.613 289.998 177.608 290.28 177.609 290.553C177.599 290.843 177.587 291.125 177.574 291.401L176.82 303.638L175.368 303.874Z" fill="#F5F5FA"/>
<path d="M202.239 290.786C201.656 290.97 201.22 290.981 200.931 290.819C200.628 290.662 200.384 290.292 200.2 289.709L200.129 289.485C199.936 288.876 199.919 288.419 200.076 288.116C200.22 287.817 200.583 287.576 201.166 287.391L201.39 287.321C201.999 287.128 202.456 287.11 202.759 287.268C203.062 287.425 203.31 287.809 203.503 288.419L203.573 288.642C203.758 289.225 203.771 289.668 203.614 289.971C203.456 290.274 203.072 290.522 202.463 290.715L202.239 290.786Z" fill="#F5F5FA"/>
<path d="M221.122 291.26L216.278 280.28C216.083 279.838 215.807 279.548 215.451 279.41C215.101 279.285 214.698 279.323 214.243 279.523L209.231 281.735L208.753 280.757C209.588 280.327 210.445 279.91 211.323 279.507C212.202 279.104 213.083 278.707 213.967 278.317C214.812 277.944 215.534 277.89 216.132 278.154C216.736 278.431 217.184 278.902 217.476 279.565L222.389 290.7L221.122 291.26Z" fill="#F5F5FA"/>
<path d="M231.786 285.819C231.177 286.156 230.561 286.496 229.939 286.839C229.317 287.183 228.694 287.51 228.071 287.822C227.442 288.153 226.825 288.461 226.22 288.747L225.75 287.764L230.993 284.869C231.404 284.642 231.659 284.355 231.76 284.007C231.847 283.667 231.771 283.279 231.531 282.843L227.038 274.708C226.798 274.272 226.507 273.995 226.165 273.875C225.817 273.775 225.438 273.838 225.027 274.065L219.784 276.96L219.213 276.058C219.777 275.698 220.366 275.34 220.982 274.984C221.584 274.635 222.197 274.289 222.819 273.945C223.434 273.589 224.046 273.243 224.656 272.906C225.34 272.529 226 272.416 226.636 272.568C227.266 272.739 227.756 273.142 228.107 273.777L232.888 282.435C233.245 283.082 233.325 283.711 233.127 284.323C232.917 284.943 232.47 285.441 231.786 285.819ZM230.675 279.176L224.013 282.855L223.467 281.866L230.129 278.187L230.675 279.176Z" fill="#F5F5FA"/>
<path d="M242.498 279.108C241.933 279.491 241.358 279.871 240.774 280.25C240.198 280.641 239.629 281.018 239.068 281.381C238.495 281.751 237.927 282.103 237.362 282.434L236.822 281.486L241.534 278.293C241.945 278.014 242.191 277.693 242.271 277.33C242.34 276.975 242.234 276.591 241.955 276.18L235.223 266.245L236.388 265.456L243.251 275.585C243.682 276.22 243.827 276.851 243.685 277.479C243.541 278.127 243.145 278.669 242.498 279.108ZM240.691 272.453L234.533 276.626L233.899 275.691L240.058 271.518L240.691 272.453Z" fill="#F5F5FA"/>
<path d="M251.77 272.103C251.672 272.185 251.561 272.23 251.44 272.239C251.307 272.256 251.188 272.225 251.085 272.145L238.172 264.267L239.288 263.343L250.384 270.262C250.555 270.379 250.731 270.491 250.913 270.599C251.103 270.718 251.279 270.831 251.441 270.937L251.917 270.543C251.843 270.364 251.766 270.17 251.684 269.961C251.601 269.771 251.524 269.577 251.452 269.379L246.726 257.185L247.843 256.261L253.17 270.419C253.219 270.544 253.228 270.666 253.196 270.784C253.165 270.902 253.1 271.002 253.002 271.084L251.77 272.103ZM244.029 267.332L243.255 266.396L249.002 261.639L249.776 262.575L244.029 267.332Z" fill="#F5F5FA"/>
<path d="M263.677 261.209C263.186 261.704 262.691 262.203 262.19 262.707C261.69 263.211 261.184 263.701 260.673 264.175C260.163 264.669 259.657 265.138 259.156 265.582L258.43 264.771L262.649 260.52C262.98 260.187 263.144 259.84 263.143 259.478C263.132 259.126 262.949 258.775 262.596 258.425L256.001 251.878C255.648 251.527 255.29 251.343 254.928 251.324C254.567 251.325 254.221 251.492 253.89 251.825L249.671 256.076L248.869 255.371C249.309 254.867 249.775 254.357 250.265 253.843C250.746 253.339 251.236 252.835 251.737 252.33C252.227 251.816 252.718 251.312 253.208 250.818C253.759 250.263 254.361 249.969 255.014 249.937C255.667 249.924 256.251 250.174 256.765 250.684L263.784 257.652C264.309 258.172 264.562 258.754 264.544 259.398C264.517 260.051 264.228 260.655 263.677 261.209ZM260.746 255.146L255.385 260.547L254.583 259.751L259.944 254.35L260.746 255.146Z" fill="#F5F5FA"/>
<path d="M272.071 251.993C271.317 252.918 270.631 253.579 270.015 253.975C269.401 254.391 268.78 254.545 268.153 254.437C267.526 254.329 266.822 253.957 266.04 253.319C265.224 252.655 264.728 251.993 264.55 251.335C264.363 250.687 264.514 249.995 265.005 249.258L264.939 249.204C264.17 249.99 263.393 250.337 262.605 250.245C261.809 250.164 260.954 249.752 260.04 249.006C259.258 248.369 258.751 247.754 258.519 247.161C258.278 246.58 258.285 245.953 258.54 245.281C258.805 244.617 259.288 243.856 259.989 242.997C260.501 242.369 260.946 241.834 261.325 241.391C261.684 240.951 262.027 240.552 262.355 240.195C262.682 239.839 263.033 239.465 263.407 239.073L264.078 240.005C263.878 240.227 263.503 240.664 262.954 241.316C262.404 241.968 261.77 242.735 261.052 243.616C260.513 244.277 260.146 244.839 259.951 245.304C259.758 245.788 259.748 246.238 259.922 246.655C260.107 247.081 260.502 247.54 261.108 248.034C261.758 248.564 262.331 248.884 262.827 248.995C263.314 249.117 263.795 249.033 264.271 248.742C264.737 248.462 265.258 247.98 265.835 247.295L268.717 243.759L269.56 244.446L266.678 247.982C266.195 248.597 265.865 249.125 265.688 249.568C265.513 250.03 265.516 250.464 265.699 250.869C265.873 251.286 266.241 251.723 266.802 252.181C267.386 252.657 267.904 252.932 268.356 253.008C268.799 253.094 269.242 252.978 269.684 252.66C270.118 252.354 270.613 251.859 271.169 251.176C271.591 250.658 271.973 250.19 272.314 249.771C272.655 249.353 272.946 248.985 273.187 248.668C273.438 248.359 273.629 248.102 273.76 247.897L274.807 248.366C274.555 248.766 274.3 249.135 274.041 249.474C273.794 249.823 273.513 250.19 273.199 250.575C272.887 250.981 272.511 251.453 272.071 251.993ZM273.945 249.424L262.545 240.131L263.407 239.073L274.807 248.366L273.945 249.424Z" fill="#F5F5FA"/>
<path d="M275.481 234.663C275.153 235.179 274.826 235.468 274.5 235.53C274.167 235.605 273.742 235.478 273.227 235.151L273.029 235.025C272.489 234.682 272.182 234.344 272.107 234.01C272.025 233.689 272.148 233.27 272.476 232.754L272.602 232.557C272.944 232.017 273.283 231.71 273.616 231.635C273.949 231.561 274.386 231.695 274.926 232.038L275.124 232.164C275.64 232.491 275.935 232.822 276.009 233.155C276.083 233.489 275.949 233.925 275.606 234.465L275.481 234.663Z" fill="#F5F5FA"/>
<path d="M289.829 224.156C289.355 225.142 288.858 225.881 288.338 226.372C287.831 226.869 287.237 227.12 286.557 227.124C285.884 227.147 285.048 226.919 284.049 226.439C283.306 226.082 282.731 225.703 282.324 225.302C281.931 224.908 281.692 224.47 281.608 223.988C281.524 223.507 281.576 222.956 281.763 222.336L281.687 222.3C281.518 222.486 281.301 222.642 281.036 222.767C280.771 222.892 280.47 222.976 280.134 223.02C279.798 223.063 279.435 223.046 279.047 222.97L274.193 222.292L274.839 220.947L279.618 221.683C280.255 221.769 280.765 221.707 281.15 221.498C281.528 221.301 281.831 220.966 282.059 220.492C282.422 219.736 282.745 219.064 283.029 218.475C283.319 217.905 283.562 217.43 283.76 217.052C283.957 216.674 284.109 216.392 284.214 216.206L285.204 216.753L283.2 220.922C282.868 221.646 282.681 222.249 282.637 222.733C282.6 223.236 282.738 223.672 283.048 224.042C283.372 224.418 283.892 224.779 284.61 225.124C285.34 225.475 285.946 225.656 286.43 225.668C286.913 225.679 287.333 225.511 287.69 225.162C288.04 224.826 288.388 224.299 288.733 223.582C289.226 222.557 289.644 221.671 289.988 220.922C290.345 220.179 290.579 219.676 290.689 219.414L291.798 219.616C291.622 220.114 291.448 220.575 291.276 220.997C291.105 221.419 290.902 221.874 290.668 222.36C290.441 222.866 290.161 223.464 289.829 224.156ZM291.198 220.865L277.942 214.492L278.543 213.244L291.798 219.616L291.198 220.865Z" fill="#F5F5FA"/>
<path d="M295.735 209.585C295.496 210.239 295.254 210.9 295.01 211.567C294.766 212.235 294.512 212.89 294.246 213.535C293.988 214.197 293.725 214.835 293.456 215.447L292.456 215.014L294.514 209.388C294.675 208.948 294.679 208.564 294.527 208.236C294.369 207.921 294.057 207.678 293.59 207.507L284.862 204.316C284.394 204.145 283.993 204.126 283.656 204.261C283.328 204.413 283.083 204.709 282.922 205.15L280.865 210.775L279.842 210.469C280.032 209.827 280.242 209.17 280.472 208.498C280.698 207.839 280.933 207.176 281.177 206.509C281.408 205.837 281.643 205.174 281.882 204.52C282.15 203.786 282.574 203.267 283.154 202.965C283.742 202.681 284.376 202.663 285.057 202.912L294.346 206.309C295.04 206.562 295.513 206.985 295.766 207.577C296.014 208.182 296.004 208.851 295.735 209.585ZM290.538 205.302L287.925 212.449L286.864 212.061L289.477 204.914L290.538 205.302Z" fill="#F5F5FA"/>
<path d="M299.263 198.735C298.98 199.821 298.623 200.653 298.193 201.231C297.763 201.809 297.196 202.153 296.492 202.263C295.798 202.391 294.88 202.305 293.739 202.007C292.598 201.71 291.747 201.341 291.186 200.901C290.625 200.461 290.304 199.892 290.221 199.195C290.135 198.512 290.23 197.641 290.507 196.582C290.654 196.018 290.801 195.484 290.947 194.978C291.107 194.477 291.257 194.017 291.396 193.597C291.545 193.196 291.679 192.849 291.799 192.557C291.916 192.279 292.002 192.089 292.058 191.986L292.888 192.269C292.705 192.97 292.513 193.705 292.312 194.475C292.111 195.245 291.914 196.002 291.72 196.744C291.536 197.504 291.477 198.127 291.54 198.614C291.601 199.114 291.833 199.52 292.236 199.831C292.653 200.145 293.275 200.41 294.1 200.626C294.952 200.848 295.63 200.922 296.134 200.848C296.638 200.774 297.039 200.534 297.336 200.126C297.63 199.733 297.875 199.158 298.072 198.402C298.36 197.302 298.6 196.351 298.795 195.55C299.003 194.753 299.129 194.213 299.173 193.931L300.321 193.922C300.243 194.445 300.161 194.93 300.073 195.377C299.986 195.825 299.874 196.309 299.738 196.832C299.615 197.358 299.457 197.992 299.263 198.735ZM299.971 195.263L285.74 191.549L286.09 190.208L300.321 193.922L299.971 195.263Z" fill="#F5F5FA"/>
<path d="M302.505 183.587C302.346 184.626 302.079 185.484 301.704 186.16C301.342 186.838 300.833 187.35 300.176 187.696C299.534 188.044 298.713 188.242 297.714 188.291C296.715 188.341 295.513 188.259 294.108 188.045C292.703 187.831 291.531 187.553 290.591 187.208C289.652 186.864 288.92 186.43 288.396 185.904C287.887 185.381 287.553 184.741 287.395 183.984C287.251 183.229 287.258 182.332 287.416 181.292C287.574 180.253 287.834 179.394 288.196 178.716C288.572 178.04 289.081 177.528 289.723 177.18C290.379 176.834 291.208 176.63 292.209 176.566C293.209 176.517 294.411 176.599 295.816 176.813C297.221 177.026 298.393 177.305 299.332 177.649C300.27 178.007 300.993 178.448 301.503 178.971C302.027 179.496 302.361 180.136 302.505 180.891C302.663 181.649 302.663 182.547 302.505 183.587ZM301.261 183.397C301.419 182.358 301.342 181.498 301.028 180.818C300.727 180.154 300.139 179.626 299.264 179.234C298.389 178.843 297.165 178.527 295.591 178.288C294.018 178.049 292.755 177.986 291.804 178.1C290.852 178.214 290.127 178.542 289.627 179.084C289.14 179.643 288.817 180.442 288.659 181.481C288.501 182.521 288.573 183.373 288.874 184.037C289.19 184.703 289.785 185.232 290.66 185.623C291.532 186.029 292.755 186.352 294.329 186.591C295.902 186.83 297.166 186.886 298.12 186.758C299.071 186.644 299.79 186.314 300.275 185.77C300.774 185.228 301.103 184.437 301.261 183.397Z" fill="#F5F5FA"/>
<path d="M303.76 167.536L291.776 166.903C291.294 166.878 290.91 166.993 290.626 167.248C290.357 167.504 290.209 167.881 290.183 168.377L289.894 173.848L288.806 173.833C288.799 172.894 288.813 171.941 288.85 170.975C288.887 170.01 288.931 169.044 288.982 168.079C289.03 167.157 289.308 166.488 289.813 166.074C290.333 165.66 290.955 165.473 291.679 165.511L303.833 166.153L303.76 167.536Z" fill="#F5F5FA"/>
<path d="M303.718 155.564C303.743 156.26 303.769 156.963 303.794 157.673C303.82 158.383 303.831 159.087 303.828 159.784C303.84 160.494 303.836 161.184 303.818 161.853L302.729 161.829L302.512 155.843C302.495 155.374 302.354 155.017 302.089 154.77C301.825 154.538 301.444 154.431 300.947 154.449L291.66 154.786C291.163 154.804 290.783 154.939 290.522 155.19C290.276 155.455 290.161 155.822 290.178 156.29L290.396 162.276L289.333 162.379C289.266 161.713 289.213 161.025 289.173 160.316C289.133 159.62 289.101 158.918 289.075 158.208C289.035 157.498 289.002 156.795 288.977 156.099C288.949 155.318 289.146 154.678 289.569 154.18C290.006 153.694 290.587 153.439 291.311 153.412L301.195 153.054C301.934 153.027 302.531 153.24 302.989 153.693C303.446 154.159 303.689 154.783 303.718 155.564ZM297.289 153.558L297.565 161.163L296.436 161.204L296.16 153.599L297.289 153.558Z" fill="#F5F5FA"/>
<path d="M303.387 149.325L288.591 146.593C288.473 146.566 288.365 146.509 288.267 146.421C288.184 146.332 288.133 146.224 288.117 146.098L287.91 144.555C287.893 144.428 287.913 144.304 287.968 144.182C288.039 144.072 288.129 143.995 288.238 143.952L301.796 137.43L301.989 138.867L290.575 144.22C290.319 144.341 290.069 144.453 289.825 144.557C289.582 144.676 289.332 144.788 289.074 144.894L289.15 145.465C289.429 145.513 289.7 145.556 289.963 145.593C290.24 145.627 290.519 145.676 290.8 145.739L303.192 147.867L303.387 149.325Z" fill="#F5F5FA"/>
<path d="M299.803 128.437C299.962 129.115 300.122 129.8 300.283 130.492C300.445 131.184 300.591 131.872 300.722 132.557C300.87 133.252 300.999 133.93 301.109 134.59L300.036 134.775L298.673 128.942C298.567 128.485 298.36 128.162 298.052 127.971C297.748 127.794 297.354 127.762 296.87 127.875L287.82 129.989C287.336 130.103 286.989 130.307 286.781 130.604C286.591 130.911 286.549 131.293 286.655 131.75L288.018 137.583L286.995 137.887C286.801 137.247 286.617 136.582 286.441 135.893C286.269 135.219 286.102 134.535 285.94 133.843C285.765 133.155 285.598 132.471 285.439 131.793C285.262 131.032 285.332 130.366 285.651 129.796C285.987 129.236 286.508 128.873 287.214 128.708L296.845 126.458C297.565 126.29 298.192 126.384 298.728 126.74C299.267 127.111 299.625 127.676 299.803 128.437ZM293.108 127.703L294.84 135.113L293.74 135.37L292.008 127.96L293.108 127.703Z" fill="#F5F5FA"/>
<path d="M296.327 116.01C296.66 116.978 296.814 117.842 296.789 118.601C296.778 119.356 296.569 120.037 296.161 120.643C295.754 121.249 295.125 121.803 294.276 122.305C293.427 122.808 292.337 123.287 291.006 123.745C289.676 124.202 288.522 124.494 287.543 124.62C286.565 124.746 285.728 124.695 285.034 124.468C284.34 124.241 283.75 123.835 283.263 123.251C282.79 122.662 282.388 121.884 282.055 120.916C281.732 119.975 281.454 119.102 281.222 118.295C280.976 117.493 280.76 116.733 280.574 116.016L281.823 116.24C282.013 116.836 282.219 117.479 282.441 118.169C282.667 118.872 282.929 119.654 283.224 120.514C283.557 121.482 284.002 122.186 284.558 122.625C285.133 123.074 285.899 123.269 286.856 123.211C287.817 123.166 289.044 122.887 290.535 122.374C292.027 121.861 293.166 121.327 293.951 120.771C294.742 120.229 295.226 119.605 295.404 118.897C295.586 118.204 295.511 117.373 295.178 116.405C294.887 115.559 294.617 114.795 294.368 114.114C294.119 113.434 293.872 112.782 293.628 112.16L294.483 111.235C294.777 111.915 295.073 112.647 295.373 113.431C295.69 114.223 296.008 115.083 296.327 116.01ZM294.933 112.545L281.024 117.326L280.574 116.016L294.483 111.235L294.933 112.545Z" fill="#F5F5FA"/>
<path d="M288.243 97.1096C288.789 98.1711 289.12 99.0634 289.236 99.7866C289.372 100.516 289.264 101.146 288.915 101.678C288.565 102.209 287.941 102.706 287.044 103.167C286.109 103.648 285.304 103.839 284.629 103.739C283.961 103.651 283.387 103.235 282.908 102.49L282.833 102.529C283.245 103.548 283.251 104.399 282.852 105.084C282.46 105.781 281.739 106.4 280.69 106.939C279.793 107.401 279.027 107.619 278.391 107.595C277.761 107.583 277.19 107.326 276.676 106.823C276.174 106.314 275.67 105.567 275.163 104.581C274.792 103.861 274.48 103.238 274.226 102.714C273.966 102.208 273.738 101.734 273.542 101.292C273.347 100.849 273.144 100.378 272.935 99.878L274.057 99.6363C274.181 99.9082 274.432 100.426 274.809 101.191C275.187 101.956 275.635 102.844 276.155 103.855C276.545 104.613 276.914 105.174 277.261 105.539C277.628 105.91 278.037 106.099 278.488 106.106C278.952 106.107 279.532 105.929 280.227 105.572C280.972 105.188 281.495 104.791 281.796 104.381C282.102 103.984 282.218 103.509 282.141 102.957C282.072 102.417 281.838 101.746 281.442 100.944L279.355 96.8873L280.322 96.39L282.408 100.446C282.778 101.135 283.131 101.649 283.465 101.988C283.819 102.334 284.218 102.504 284.663 102.499C285.114 102.506 285.662 102.344 286.306 102.013C286.976 101.668 287.436 101.304 287.686 100.92C287.942 100.548 288.013 100.096 287.899 99.5636C287.791 99.0437 287.536 98.392 287.133 97.6085C286.827 97.0146 286.551 96.4775 286.304 95.9973C286.057 95.5171 285.836 95.1034 285.642 94.7561C285.46 94.4022 285.301 94.1244 285.165 93.9226L286.014 93.1502C286.279 93.5412 286.516 93.923 286.723 94.2956C286.943 94.6617 287.167 95.0659 287.395 95.5082C287.641 95.9566 287.924 96.4904 288.243 97.1096ZM286.638 94.3633L273.559 101.091L272.935 99.878L286.014 93.1502L286.638 94.3633Z" fill="#F5F5FA"/>
<path d="M280.384 83.9584C280.762 84.5435 281.143 85.1346 281.528 85.7317C281.913 86.3288 282.283 86.9276 282.636 87.5282C283.009 88.1329 283.359 88.7275 283.685 89.3119L282.737 89.8474L279.49 84.814C279.236 84.42 278.932 84.1848 278.578 84.1085C278.233 84.0441 277.851 84.1468 277.433 84.4164L269.623 89.4542C269.205 89.7238 268.948 90.0333 268.852 90.3826C268.776 90.7362 268.865 91.1101 269.119 91.5041L272.366 96.5375L271.505 97.169C271.107 96.6309 270.709 96.0671 270.312 95.4777C269.923 94.9003 269.536 94.313 269.151 93.7159C268.753 93.1266 268.366 92.5393 267.989 91.9542C267.565 91.2974 267.407 90.6466 267.516 90.0018C267.644 89.3612 268.012 88.8445 268.621 88.4516L276.932 83.0903C277.553 82.6897 278.176 82.5671 278.8 82.7224C279.433 82.8896 279.96 83.3016 280.384 83.9584ZM273.833 85.5209L277.958 91.9156L277.009 92.528L272.884 86.1333L273.833 85.5209Z" fill="#F5F5FA"/>
<path d="M276.661 78.1161L263.595 84.761C263.48 84.8013 263.359 84.8108 263.229 84.7894C263.1 84.7679 262.985 84.6973 262.885 84.5776L261.803 83.2872C261.712 83.1783 261.662 83.053 261.654 82.9111C261.656 82.78 261.696 82.6626 261.776 82.5586L268.941 73.1563C269.123 72.9301 269.294 72.7031 269.455 72.4751C269.636 72.2489 269.812 72.0273 269.983 71.8103L269.667 71.4346C269.424 71.5646 269.175 71.6991 268.921 71.8381C268.667 71.9772 268.418 72.1117 268.174 72.2416L257.667 77.6586C257.551 77.719 257.424 77.7331 257.285 77.7008C257.156 77.6793 257.046 77.6142 256.954 77.5053L255.859 76.1986C255.767 76.0897 255.718 75.9643 255.71 75.8224C255.712 75.6914 255.747 75.5785 255.815 75.4837L264.636 63.7755L265.581 64.9025L258.16 74.6304C258.01 74.8492 257.839 75.0663 257.649 75.2815C257.468 75.5077 257.281 75.7385 257.089 75.9738L257.431 76.3821C257.696 76.2339 257.951 76.0948 258.194 75.9649C258.448 75.8258 258.697 75.6913 258.941 75.5614L269.383 70.1992C269.521 70.1205 269.654 70.0919 269.784 70.1133C269.922 70.1457 270.037 70.2163 270.128 70.3252L271.169 71.5665C271.26 71.6754 271.305 71.7953 271.304 71.9263C271.302 72.0573 271.251 72.1839 271.149 72.3062L264.063 81.67C263.891 81.9071 263.71 82.1333 263.519 82.3486C263.349 82.5656 263.169 82.7818 262.978 82.9971L263.334 83.4217C263.589 83.2827 263.833 83.1427 264.067 83.0019C264.321 82.8628 264.57 82.7283 264.814 82.5984L275.716 76.9891L276.661 78.1161Z" fill="#F5F5FA"/>
<path d="M251.673 61.7163C252.129 62.1228 252.362 62.4919 252.371 62.8235C252.39 63.1646 252.197 63.5632 251.79 64.0194L251.635 64.1945C251.209 64.6719 250.826 64.9205 250.485 64.9401C250.154 64.9692 249.761 64.7805 249.305 64.374L249.13 64.218C248.652 63.7926 248.404 63.4094 248.384 63.0683C248.364 62.7272 248.567 62.318 248.993 61.8405L249.149 61.6655C249.555 61.2092 249.929 60.9713 250.27 60.9517C250.611 60.932 251.02 61.1349 251.498 61.5603L251.673 61.7163Z" fill="#F5F5FA"/>
<path d="M242.425 45.2465L235.466 55.0236C235.186 55.4173 235.078 55.8023 235.141 56.1789C235.213 56.5438 235.451 56.8705 235.856 57.1589L240.32 60.3355L239.724 61.2459C238.927 60.7484 238.131 60.2252 237.335 59.6765C236.54 59.1277 235.748 58.5732 234.961 58.0128C234.208 57.4772 233.793 56.8849 233.714 56.2358C233.644 55.5751 233.818 54.9496 234.239 54.3591L241.296 44.443L242.425 45.2465Z" fill="#F5F5FA"/>
<path d="M232.296 38.8637C232.897 39.2155 233.504 39.5708 234.118 39.9297C234.731 40.2886 235.331 40.6562 235.917 41.0324C236.523 41.4036 237.104 41.7763 237.659 42.1504L237.054 43.0563L231.885 40.0308C231.48 39.7939 231.103 39.7212 230.753 39.8128C230.415 39.9115 230.121 40.1755 229.869 40.6048L225.175 48.6257C224.924 49.0549 224.834 49.4471 224.906 49.8021C224.998 50.1521 225.246 50.4455 225.651 50.6824L230.82 53.7079L230.337 54.6601C229.739 54.3595 229.13 54.0359 228.509 53.6892C227.901 53.3498 227.291 53.0006 226.677 52.6417C226.057 52.295 225.446 51.9459 224.845 51.5941C224.171 51.1993 223.736 50.6898 223.542 50.0656C223.367 49.4362 223.462 48.8088 223.828 48.1834L228.824 39.6474C229.198 39.0096 229.698 38.6191 230.325 38.4758C230.965 38.3396 231.622 38.4689 232.296 38.8637ZM227.156 43.2154L233.724 47.0592L233.153 48.0342L226.585 44.1904L227.156 43.2154Z" fill="#F5F5FA"/>
<path d="M221.052 33.0899C221.669 33.3795 222.29 33.6786 222.915 33.9871C223.545 34.2827 224.16 34.5787 224.759 34.8752C225.37 35.1776 225.963 35.4869 226.536 35.8031L225.998 36.7511L220.845 34.3348C220.394 34.1236 219.993 34.0765 219.64 34.1935C219.3 34.3165 219.024 34.6031 218.813 35.0534L213.718 45.9189L212.444 45.3216L217.639 34.2438C217.964 33.5491 218.433 33.1018 219.045 32.9021C219.675 32.6955 220.344 32.7581 221.052 33.0899ZM216.256 38.0453L222.992 41.2037L222.512 42.2265L215.777 39.0681L216.256 38.0453Z" fill="#F5F5FA"/>
<path d="M210.291 28.7031C210.411 28.746 210.506 28.8177 210.576 28.918C210.659 29.0231 210.693 29.1407 210.677 29.2707L210.51 44.3965L209.144 43.9096L209.417 30.8356C209.43 30.6291 209.437 30.4202 209.437 30.209C209.442 29.9843 209.448 29.7755 209.457 29.5824L208.874 29.3747C208.759 29.5296 208.632 29.6955 208.493 29.8724C208.373 30.0407 208.246 30.2066 208.112 30.3701L200.049 40.6657L198.684 40.1788L208.127 28.3613C208.21 28.2551 208.31 28.1853 208.428 28.1518C208.546 28.1183 208.665 28.123 208.785 28.166L210.291 28.7031ZM210.148 37.7952L209.74 38.9396L202.713 36.4333L203.121 35.2889L210.148 37.7952Z" fill="#F5F5FA"/>
<path d="M194.84 24.0409C195.516 24.2098 196.198 24.3804 196.888 24.5527C197.577 24.7251 198.256 24.9095 198.924 25.1059C199.61 25.292 200.272 25.4868 200.91 25.6901L200.584 26.7292L194.773 25.2765C194.318 25.1628 193.936 25.199 193.625 25.3851C193.329 25.5747 193.12 25.9107 193 26.3932L190.746 35.4094C190.625 35.8919 190.649 36.2935 190.818 36.614C191.004 36.9242 191.325 37.1361 191.78 37.2499L197.591 38.7026L197.394 39.7521C196.736 39.6314 196.06 39.4919 195.368 39.3333C194.689 39.1782 194.005 39.0145 193.315 38.8422C192.622 38.6836 191.938 38.5199 191.263 38.3511C190.505 38.1615 189.945 37.7944 189.583 37.2499C189.238 36.695 189.154 36.066 189.329 35.3629L191.728 25.7677C191.907 25.0508 192.278 24.5355 192.84 24.2219C193.415 23.9117 194.082 23.8514 194.84 24.0409ZM191.128 29.6606L198.511 31.5062L198.237 32.6022L190.854 30.7566L191.128 29.6606Z" fill="#F5F5FA"/>
<path d="M182.628 21.5397C183.809 21.7148 184.727 21.9658 185.382 22.2928C186.054 22.6079 186.504 23.0624 186.732 23.6565C186.96 24.2506 187 25.0466 186.852 26.0447C186.697 27.0849 186.383 27.8499 185.908 28.3398C185.447 28.8317 184.775 29.0553 183.891 29.0104L183.878 29.0948C184.946 29.3536 185.642 29.8446 185.966 30.5678C186.303 31.2931 186.386 32.2391 186.213 33.4058C186.065 34.4039 185.796 35.1541 185.405 35.6565C185.029 36.1609 184.486 36.4756 183.778 36.6005C183.072 36.7113 182.171 36.6854 181.075 36.5229C180.273 36.4041 179.586 36.2949 179.011 36.1954C178.449 36.1121 177.931 36.0209 177.457 35.9219C176.984 35.823 176.483 35.7128 175.955 35.5914L176.413 34.5388C176.706 34.5966 177.273 34.695 178.114 34.8341C178.956 34.9732 179.938 35.1261 181.063 35.2929C181.906 35.4179 182.578 35.4456 183.076 35.3758C183.591 35.2942 183.983 35.0722 184.253 34.7098C184.524 34.3334 184.717 33.7587 184.831 32.9855C184.954 32.1562 184.937 31.4999 184.778 31.0168C184.634 30.5357 184.316 30.1652 183.823 29.9054C183.344 29.6476 182.663 29.4461 181.779 29.3007L177.267 28.6317L177.426 27.5564L181.938 28.2254C182.714 28.3259 183.337 28.3393 183.807 28.2654C184.294 28.1795 184.665 27.9544 184.92 27.59C185.189 27.2276 185.377 26.688 185.483 25.9711C185.594 25.2261 185.566 24.6401 185.399 24.2132C185.247 23.7883 184.921 23.4671 184.422 23.2494C183.936 23.0338 183.258 22.8614 182.386 22.7322C181.726 22.6343 181.128 22.5457 180.594 22.4665C180.06 22.3873 179.595 22.3256 179.199 22.2813C178.806 22.2229 178.488 22.1901 178.244 22.1828L178.112 21.0426C178.584 21.0551 179.032 21.0856 179.456 21.1341C179.882 21.1685 180.341 21.2222 180.833 21.2951C181.341 21.3561 181.939 21.4376 182.628 21.5397ZM179.461 21.2426L177.304 35.7915L175.955 35.5914L178.112 21.0426L179.461 21.2426Z" fill="#F5F5FA"/>
<path d="M165.991 27.4708C166.602 27.4886 167.018 27.6216 167.238 27.8697C167.472 28.1182 167.581 28.5479 167.563 29.1587L167.556 29.393C167.537 30.0322 167.404 30.4691 167.155 30.7035C166.921 30.9383 166.499 31.0469 165.888 31.0291L165.653 31.0222C165.014 31.0036 164.577 30.87 164.343 30.6215C164.108 30.373 164.001 29.9291 164.019 29.2899L164.026 29.0555C164.044 28.4447 164.177 28.0221 164.426 27.7877C164.674 27.5532 165.118 27.4454 165.757 27.464L165.991 27.4708Z" fill="#F5F5FA"/>
<ellipse cx="195.023" cy="99.7906" rx="13.6852" ry="13.6852" fill="#F5F5FA"/>
<path fill-rule="evenodd" clip-rule="evenodd" d="M204.146 238.047C205.784 238.865 209.059 239.38 209.059 234.889V131.021C208.474 127.161 205.41 119.441 197.83 119.441H142.387V85.7544H125.544C122.737 85.7544 114.666 89.0529 114.666 96.6324V188.92C115.485 197.108 122.175 213.483 142.387 213.483H175.877C175.877 213.483 179.232 213.483 183.092 216.992L204.146 238.047ZM182.04 146.461H142.037V186.464H182.04V146.461Z" fill="#F5F5FA"/>
</svg>
